<svg xmlns="http://www.w3.org/2000/svg" width="273.116" height="133.471" viewBox="0 0 273.116 133.471"><defs><style>.a,.b,.c{fill:#fff;}.a{font-size:68px;}.a,.b{font-family:ArialRoundedMTBold, Arial Rounded MT;}.b{font-size:26px;}</style></defs><g transform="translate(-193.471 -434.197)"><text class="a" transform="translate(215.528 522.953)"><tspan x="0" y="0">Car-gO</tspan></text><text class="b" transform="translate(248.529 561.668)"><tspan x="0" y="0">dealer group</tspan></text><path class="c" d="M292.253,496.91a233.178,233.178,0,0,0-23.322.8c-7.754.5-15.505,1.04-23.255,1.572a52.781,52.781,0,0,0-37.336,12.229,25.58,25.58,0,0,0-5.166,8.371,19.382,19.382,0,0,0-.575,9.574.523.523,0,0,0,1.036-.145,17.055,17.055,0,0,1,1.636-7.979,7.457,7.457,0,0,0,2.08-.3,21.93,21.93,0,0,0,6.66-2.97,18.879,18.879,0,0,0,3.094-2.568c.987-.992,1.685-2.168,2.571-3.236.517-.622-.486-1.378-1-.757a14.133,14.133,0,0,1-2.876,2.294,27.261,27.261,0,0,1-2.928,1.75,23.319,23.319,0,0,1-5.661,2.063,24.513,24.513,0,0,1,2.609-3.325,31.629,31.629,0,0,1,15.256-8.649,100.005,100.005,0,0,1,19.732-2.564c7.468-.466,14.937-.916,22.4-1.413a250.934,250.934,0,0,0,25.074-2.36C293.566,499.074,293.668,496.96,292.253,496.91Z" transform="translate(-8.779 -38.654)"/><path class="c" d="M571.548,462.475a35.39,35.39,0,0,0-4.63-2.289c-1.559-.58-3.132-1.11-4.718-1.61-3.3-1.038-6.651-1.9-10.021-2.671a141.724,141.724,0,0,0-19.875-3.08q-2.886-.239-5.779-.364c-1.165-.46-2.276-1.029-3.459-1.433-1.383-.472-2.771-.923-4.158-1.375-2.678-.866-5.376-1.648-8.087-2.409-5.489-1.541-11.041-2.9-16.6-4.155a220.6,220.6,0,0,0-32.95-5.1,162.213,162.213,0,0,0-61.363,7.326,155.608,155.608,0,0,0-16.213,6.311,123.774,123.774,0,0,0-15.208,8.259c-.523.333-.012,1.2.543.936A194.218,194.218,0,0,1,427.257,443.1a164.986,164.986,0,0,1,30.206-1.165,211.92,211.92,0,0,1,32.627,4.594c5.995,1.277,11.939,2.742,17.865,4.3,2.081.546,4.163,1.093,6.25,1.619a137.189,137.189,0,0,0-22.324,2.741,106.074,106.074,0,0,0-10.926,2.9c-3.669,1.184-7.149,2.72-10.712,4.171-.682.277-.244,1.243.432,1.034,3.2-.985,6.515-1.621,9.778-2.352q4.852-1.088,9.761-1.943a172.946,172.946,0,0,1,19.667-2.327,150.451,150.451,0,0,1,39.36,2.921c3.593.747,7.138,1.66,10.671,2.649,1.755.492,3.5,1.019,5.244,1.55,1.887.574,3.792.94,5.712,1.377a1.383,1.383,0,0,0,1.505-1.047A1.427,1.427,0,0,0,571.548,462.475Z" transform="translate(-107.55 -3.36)"/><path class="c" d="M224.887,587.264a28.66,28.66,0,0,0-6.043-.318,27.84,27.84,0,0,1-4.632-.41l-.644-2.564c-.465-1.763-.9-3.534-1.468-5.265-.54-1.638-1.755-6.287-4.453-5.1a.588.588,0,0,0,.156,1.117c1.079.114,1.326,1.132,1.5,2.062.277,1.465.421,2.954.748,4.41s.631,2.891.975,4.329l.028.121a16.615,16.615,0,0,1-2.5-1.132,14.716,14.716,0,0,1-1.967-1.332c-.6-.487-1.184-1.257-1.939-1.478a.57.57,0,0,0-.763.453c-.3,1.6,1.657,3.534,2.733,4.48a13.8,13.8,0,0,0,5.017,2.8,24.554,24.554,0,0,0,6.453,1.041,18.681,18.681,0,0,0,7.132-.8C226.536,589.217,226.011,587.525,224.887,587.264Z" transform="translate(-9.738 -84.19)"/><path class="c" d="M533.181,462.814a36.362,36.362,0,0,0-8.7-2.606q-4.287-.983-8.633-1.677a138.681,138.681,0,0,0-17.662-1.653,130.752,130.752,0,0,0-35.346,3.709q-4.889,1.212-9.662,2.814c-1.534.516-3.048,1.091-4.554,1.684-1.609.633-3.138,1.443-4.745,2.075-.721.283-.258,1.373.461,1.1,2.748-1.028,5.7-1.671,8.532-2.432q4.158-1.115,8.364-2.035a156.206,156.206,0,0,1,17.21-2.675,140.855,140.855,0,0,1,34.8.714q4.816.7,9.58,1.737a83.619,83.619,0,0,0,9.621,2.139,1.516,1.516,0,0,0,.731-2.9Z" transform="translate(-152.32 -14.816)"/><path class="c" d="M771.641,519.955a15.551,15.551,0,0,0-4.4-4.243,34.539,34.539,0,0,0-5.413-3.069,37.832,37.832,0,0,0-11.7-3.284A36.26,36.26,0,0,0,727.1,514.58a36.8,36.8,0,0,0-9.512,8.9c-.462.6.422,1.221.919.693a34.98,34.98,0,0,1,8.9-6.6,38.919,38.919,0,0,1,10.186-3.872,35.836,35.836,0,0,1,21.5,2,37.279,37.279,0,0,1,5.338,2.8c1.879,1.174,3.631,2.576,5.6,3.6C771.378,522.806,772.275,520.987,771.641,519.955Z" transform="translate(-315.294 -45.95)"/><path class="c" d="M308.832,525.724a21.838,21.838,0,0,0-8.763-9.189,33.4,33.4,0,0,0-12.023-4.7,30.367,30.367,0,0,0-23.85,5.9,29.447,29.447,0,0,0-4.925,4.773,36.957,36.957,0,0,0-3.67,5.93c-.239.449.519.881.787.444a29.4,29.4,0,0,1,8.1-8.172,32.708,32.708,0,0,1,10.187-4.816,29.167,29.167,0,0,1,22.084,2.816,55.3,55.3,0,0,1,10.125,8.526C307.844,528.128,309.3,526.817,308.832,525.724Z" transform="translate(-40.493 -47.276)"/><path class="c" d="M571.479,525.027a3.2,3.2,0,0,0-2.652-1.066c-1-.005-1.99.006-2.986.06a20.466,20.466,0,0,0-2.664.271c-.986.185-1.956.525-2.948.655a.623.623,0,0,0,.013,1.231c.888.158,1.756.5,2.634.717a20.5,20.5,0,0,0,2.834.459c.9.092,1.793.153,2.7.19a3.425,3.425,0,0,0,2.843-.749A1.281,1.281,0,0,0,571.479,525.027Z" transform="translate(-221.445 -54.759)"/><path class="c" d="M510.582,497.164c-6.141-.3-12.266-.322-18.411-.273-6.124.049-12.255.017-18.377.167-1.676.041-3.352.067-5.026.139-1.847.081-3.705.288-5.55.3-.727.006-.881,1.138-.135,1.143,1.554.012,3.111.192,4.667.26,1.5.066,3,.111,4.506.147,3.127.077,6.254.093,9.38.119,6.143.05,12.286.1,18.43.111,3.52.007,7.021-.132,10.535-.3a.918.918,0,0,0-.019-1.811Z" transform="translate(-163.667 -38.648)"/><path class="c" d="M870.2,539.214c-.073-2.461-.111-4.926-.194-7.386-.08-2.387-.244-4.766-.305-7.153-.065-2.532-.333-5.093-.26-7.625a.583.583,0,0,0-1.158-.136c-.4,2.489-1.011,4.944-1.332,7.452-.312,2.429-.562,4.884-.676,7.332-.117,2.493-.041,5.043.089,7.535a18.209,18.209,0,0,0,1.214,7.421,1.27,1.27,0,0,0,2.321-.021A21.9,21.9,0,0,0,870.2,539.214Z" transform="translate(-403.798 -50.274)"/><path class="c" d="M858.391,597.122a32.087,32.087,0,0,0-3.995,1.369c-.633.237-1.262.481-1.889.756a14.167,14.167,0,0,1-2.084.888c-.172.052-.287.331-.256.624s.179.471.344.442a11.523,11.523,0,0,1,2.04-.167c.68-.047,1.357-.122,2.036-.211a29.63,29.63,0,0,0,4.054-.653c.495-.126.835-.91.761-1.751S858.88,597.014,858.391,597.122Z" transform="translate(-394.247 -98.284)"/><path class="c" d="M598.386,473.068a23.168,23.168,0,0,0-2.858,5.343A23.94,23.94,0,0,0,593.6,484.2a1,1,0,0,0,1.785.717,24.016,24.016,0,0,0,2.609-5.533,23.154,23.154,0,0,0,1.615-5.828.687.687,0,0,0-1.223-.492Z" transform="translate(-241.605 -24.332)"/></g></svg>